<?xml version="1.0" encoding="utf-8"?>
<!-- Generator: Adobe Illustrator 21.0.2, SVG Export Plug-In . SVG Version: 6.00 Build 0)  -->
<svg version="1.1" id="Layer_1" xmlns="http://www.w3.org/2000/svg" xmlns:xlink="http://www.w3.org/1999/xlink" x="0px" y="0px"
	 viewBox="0 0 254 196" style="enable-background:new 0 0 254 196;" xml:space="preserve">
<style type="text/css">
	.st0{fill:#14A4DA;}
</style>
<g>
	<path class="st0" d="M253.8,139.6c-3.2,5.2-6.9,9.9-11.3,13.9c-5.6,5.1-11.7,9.4-18.4,12.2c-6.6,2.7-13.4,4.3-20.5,4.4
		c-12.2,0.2-23.6-3.4-34.2-10.7c-7.4-5.1-13.4-11.9-18.5-19.9c-7.3-11.3-11-24.1-11.7-38.1c-0.7-16,2.9-30.7,10.7-43.8
		c4.8-8.1,10.7-15,17.9-20.2c9.9-7.2,20.6-11.3,32.3-11.8c0.8,0,1.6,0,2.3,0c6.7,0,13.3,1.3,19.8,3.7c6.9,2.6,13.1,6.6,18.9,11.7
		c5,4.4,9.2,9.5,12.7,15.3V19.5c-4-3.4-8.2-6.4-12.6-9c-13.5-7.7-27.7-11.2-42.7-10.5c-10.7,0.5-20.9,3.3-30.7,8.1
		c-6.4,3.1-12.3,7.3-17.9,12c-7.2,6-13.2,13.4-18.4,21.8c-10.3,16.6-15.3,35.3-15.4,54.9c0,5.3,0.2,9.6,0.8,13.9
		c2,16.6,7.1,31.7,16,45c5.4,8,11.3,15.2,18.5,20.9c5.7,4.6,11.6,8.6,18.1,11.6c7.1,3.3,14.4,5.6,22,6.7c11,1.6,21.9,0.8,32.6-2.4
		c6.5-1.9,12.6-4.8,18.6-8.2c3.9-2.3,7.6-5,11.2-8V139.6z"/>
	<path class="st0" d="M-0.3,139.6c3.2,5.2,6.9,9.9,11.3,13.9c5.6,5.1,11.7,9.4,18.4,12.2c6.6,2.7,13.4,4.3,20.5,4.4
		c12.2,0.2,23.6-3.4,34.2-10.7c7.4-5.1,13.4-11.9,18.5-19.9c7.3-11.3,11-24.1,11.7-38.1c0.7-16-2.9-30.7-10.7-43.8
		c-4.8-8.1-10.7-15-17.9-20.2C75.8,30.1,65.1,26,53.4,25.6c-0.8,0-1.6,0-2.3,0c-6.7,0-13.3,1.3-19.8,3.7
		c-6.9,2.6-13.1,6.6-18.9,11.7c-5,4.4-9.2,9.5-12.7,15.3V19.5c4-3.4,8.2-6.4,12.6-9C25.9,2.9,40.1-0.6,55,0.1
		c10.7,0.5,20.9,3.3,30.7,8.1c6.4,3.1,12.3,7.3,17.9,12c7.2,6,13.2,13.4,18.4,21.8c10.3,16.6,15.3,35.3,15.4,54.9
		c0,5.3-0.2,9.6-0.8,13.9c-2,16.6-7.1,31.7-16,45c-5.4,8-11.3,15.2-18.5,20.9c-5.7,4.6-11.6,8.6-18.1,11.6c-7.1,3.3-14.4,5.6-22,6.7
		c-11,1.6-21.9,0.8-32.6-2.4c-6.5-1.9-12.6-4.8-18.6-8.2c-3.9-2.3-7.6-5-11.2-8V139.6z"/>
	<g>
		<path class="st0" d="M164.4,66.9v61.9c3.8,7.3,9,13.6,15,18.1V48.8C173.4,53.3,168.2,59.5,164.4,66.9z"/>
		<path class="st0" d="M204.6,40.4v115c5.3-0.1,10.3-1.3,15-3.4V43.7C214.9,41.6,209.8,40.5,204.6,40.4z"/>
	</g>
	<g>
		<path class="st0" d="M88.9,66.9v61.9c-3.8,7.3-9,13.6-15,18.1V48.8C80,53.3,85.1,59.5,88.9,66.9z"/>
		<path class="st0" d="M48.8,40.4v115c-5.3-0.1-10.3-1.3-15-3.4V43.7C38.4,41.6,43.5,40.5,48.8,40.4z"/>
	</g>
</g>
</svg>
