<svg xmlns="https://www.w3.org/2000/svg" viewBox="0 0 179.47 76.45"><defs><style>.cls-1{fill:#231f20;}.cls-2{fill:#14a4da;}</style></defs><title>ag-blue</title><g id="Layer_2" data-name="Layer 2"><g id="Layer_5" data-name="Layer 5"><path class="cls-1" d="M179.47,11.5a1.44,1.44,0,0,0-.49-.21,10.58,10.58,0,0,1-3-1.49c-.6-.39-1.15-.86-1.75-1.24-1.6-1-3.14-2.12-4.69-3.21a35.24,35.24,0,0,0-5.9-3.55,16.4,16.4,0,0,0-5-1.41,23.08,23.08,0,0,0-9.55.89,23.75,23.75,0,0,0-5.55,2.6A24.06,24.06,0,0,0,137.86,9a27.73,27.73,0,0,0-5.67,12.22,31.74,31.74,0,0,0-.58,7.88,28.17,28.17,0,0,0,.67,4.9,26.28,26.28,0,0,0,5.06,10.62A24.81,24.81,0,0,0,145,51a25.43,25.43,0,0,0,4.42,1.86,21.59,21.59,0,0,0,5.07,1,27.8,27.8,0,0,0,7-.3,16.65,16.65,0,0,0,4.66-1.54A13.12,13.12,0,0,0,170.78,48c.36-.5.7-1,1-1.51a.52.52,0,0,1,.3.54c0,.74,0,1.48-.07,2.21a40,40,0,0,1-.77,6.47,19.63,19.63,0,0,1-3.18,7.68,13.62,13.62,0,0,1-6.16,4.66,19.46,19.46,0,0,1-3.58,1,25,25,0,0,1-5,.35,20,20,0,0,1-4.27-.51,19.4,19.4,0,0,1-4.89-1.78,10.38,10.38,0,0,1-1.95-1.36c-.46-.41-.82-.9-1.28-1.4v12c.2-.09.21-.25.27-.36a2.21,2.21,0,0,1,2.12-1.16,19.59,19.59,0,0,1,2.49.22q2.49.44,5,.92a25.59,25.59,0,0,0,3.87.49,20.28,20.28,0,0,0,5.44-.41A23.7,23.7,0,0,0,163,75.2a21.28,21.28,0,0,0,5.88-3.33,23,23,0,0,0,5.27-6,28.76,28.76,0,0,0,3.46-8.78,40.76,40.76,0,0,0,.94-9q0-15,0-29.93c0-1.22,0-2.45.12-3.67A6,6,0,0,1,179.47,11.5Zm-7.74,27.66a37.57,37.57,0,0,1-3.8,3.83,15.81,15.81,0,0,1-3.64,2.35,19.48,19.48,0,0,1-7.87,1.58,18,18,0,0,1-3.95-.22,16.45,16.45,0,0,1-3.85-1.24,16.86,16.86,0,0,1-3.32-2.11,17.22,17.22,0,0,1-3.83-4.4,22.51,22.51,0,0,1-3.23-10.16,21.15,21.15,0,0,1,.86-8.11,20,20,0,0,1,3.68-6.81,18.23,18.23,0,0,1,4.65-4.08,17.18,17.18,0,0,1,4.17-1.86,15.72,15.72,0,0,1,5-.66,16.21,16.21,0,0,1,5.6,1.17,21.56,21.56,0,0,1,3.4,1.76,36.35,36.35,0,0,1,3.09,2.26,34,34,0,0,0,3.08,2.38.79.79,0,0,1,.36.77q0,5.66,0,11.32c0,3.75,0,7.51,0,11.26A1.37,1.37,0,0,1,171.73,39.16Z"/><path class="cls-1" d="M48,51.67A3.58,3.58,0,0,1,47,49q0-16.42,0-32.85a24.73,24.73,0,0,1,.13-2.68,4.45,4.45,0,0,1,1.25-2.93c.07-.07.23-.1.14-.29h-.74a5.47,5.47,0,0,1-3-.87C43,8.28,41.4,7,39.76,5.76a37.5,37.5,0,0,0-3.2-2.2,25.92,25.92,0,0,0-3.5-1.81A20.69,20.69,0,0,0,29.3.59,24.55,24.55,0,0,0,23.5.27a21.33,21.33,0,0,0-4.15.52,25.43,25.43,0,0,0-4.66,1.58,21.45,21.45,0,0,0-3.23,1.83A24.32,24.32,0,0,0,7.07,8.05a26.25,26.25,0,0,0-4.68,7.38A30.68,30.68,0,0,0,0,28.67a28,28,0,0,0,2.11,9.79A25.26,25.26,0,0,0,6.2,45.14a25.56,25.56,0,0,0,4.74,4.35,25.22,25.22,0,0,0,6.38,3.26,21.22,21.22,0,0,0,4.93,1.09,27.76,27.76,0,0,0,7.54-.21A16.37,16.37,0,0,0,34.71,52a13.49,13.49,0,0,0,4.1-3.45c.53-.64.95-1.36,1.42-2,.29.12.32.33.31.58,0,1.21,0,2.41,0,3.62,0,.45,0,.89,0,1.34,0,.23.07.32.3.31h7.23a1,1,0,0,0,.59-.09C48.39,52,48.16,51.87,48,51.67ZM40.19,39.13A39.81,39.81,0,0,1,36.35,43a15.75,15.75,0,0,1-2.62,1.82A16.49,16.49,0,0,1,29,46.5a27.72,27.72,0,0,1-5.33.43,13.21,13.21,0,0,1-2.78-.23A16.24,16.24,0,0,1,17,45.45a16.89,16.89,0,0,1-3.32-2.11,17.6,17.6,0,0,1-4.13-4.9,22.71,22.71,0,0,1-2.92-9.55A20.74,20.74,0,0,1,8.33,18.54a19.47,19.47,0,0,1,4.6-6.5A18.37,18.37,0,0,1,17.39,9,17.44,17.44,0,0,1,23,7.35a15.81,15.81,0,0,1,5.54.4,16.84,16.84,0,0,1,5,2.17,46.44,46.44,0,0,1,4.83,3.6,12.56,12.56,0,0,0,1.72,1.28.75.75,0,0,1,.41.75c0,3.79,0,7.58,0,11.38s0,7.51,0,11.26A1.29,1.29,0,0,1,40.19,39.13Z"/><path class="cls-2" d="M125.71,38.31a17.69,17.69,0,0,1-3.11,3.83,17.18,17.18,0,0,1-5.06,3.34,15.25,15.25,0,0,1-15-1.73,19.1,19.1,0,0,1-5.09-5.46,20.7,20.7,0,0,1-3.21-10.47,21.12,21.12,0,0,1,2.94-12,18.58,18.58,0,0,1,4.91-5.54A15.83,15.83,0,0,1,111,7h.64A15.19,15.19,0,0,1,117,8a17.17,17.17,0,0,1,5.18,3.21,17.81,17.81,0,0,1,3.5,4.21V5.36a23,23,0,0,0-3.47-2.46A21.22,21.22,0,0,0,110.52,0a21.5,21.5,0,0,0-8.44,2.23,24,24,0,0,0-4.91,3.29,24.77,24.77,0,0,0-5,6,28.65,28.65,0,0,0-4.24,15.07,32.34,32.34,0,0,0,.21,3.8,27.86,27.86,0,0,0,4.39,12.34,25.49,25.49,0,0,0,5.08,5.75,24,24,0,0,0,5,3.18,21.82,21.82,0,0,0,6.05,1.84,21.07,21.07,0,0,0,9-.65,22.89,22.89,0,0,0,5.1-2.26,20.65,20.65,0,0,0,3.06-2.21Z"/><path class="cls-2" d="M56.2,38.74a17.69,17.69,0,0,0,3.19,3.76,17.18,17.18,0,0,0,5.13,3.23,15.25,15.25,0,0,0,15-2.07,19.1,19.1,0,0,0,5-5.57,20.7,20.7,0,0,0,3-10.54,21.12,21.12,0,0,0-3.21-11.95,18.58,18.58,0,0,0-5-5.43,15.83,15.83,0,0,0-8.93-3H69.6a15.19,15.19,0,0,0-5.4,1.14,17.17,17.17,0,0,0-5.11,3.32,17.81,17.81,0,0,0-3.4,4.28L55.46,5.79a23,23,0,0,1,3.42-2.54A21.22,21.22,0,0,1,70.52.11a21.5,21.5,0,0,1,8.48,2,24,24,0,0,1,5,3.18,24.77,24.77,0,0,1,5.18,5.86,28.65,28.65,0,0,1,4.58,15A32.34,32.34,0,0,1,93.62,30,27.86,27.86,0,0,1,89.5,42.41a25.49,25.49,0,0,1-4.95,5.86,24,24,0,0,1-4.88,3.29,21.82,21.82,0,0,1-6,2,21.07,21.07,0,0,1-9-.44,22.89,22.89,0,0,1-5.15-2.15,20.65,20.65,0,0,1-3.11-2.14Z"/><path class="cls-2" d="M101.15,18.36v17a14.67,14.67,0,0,0,4.12,5V13.39A14.67,14.67,0,0,0,101.15,18.36Z"/><path class="cls-2" d="M112.18,11.08V42.64a10.69,10.69,0,0,0,4.12-.92V12A10.69,10.69,0,0,0,112.18,11.08Z"/><path class="cls-2" d="M80.43,18.36v17a14.67,14.67,0,0,1-4.12,5V13.39A14.67,14.67,0,0,1,80.43,18.36Z"/><path class="cls-2" d="M69.4,11.08V42.64a10.69,10.69,0,0,1-4.12-.92V12A10.69,10.69,0,0,1,69.4,11.08Z"/></g></g></svg>